<svg width="54" height="63" viewBox="0 0 54 63" fill="none" xmlns="http://www.w3.org/2000/svg">
<path d="M52.8823 30.9837L28.3473 0.689938C28.1707 0.471227 27.9608 0.297716 27.7298 0.179329C27.4988 0.0609389 27.2511 0 27.001 0C26.7511 0 26.5034 0.0609389 26.2724 0.179329C26.0414 0.297716 25.8315 0.471227 25.6549 0.689938L1.11983 30.9837C0.405046 31.867 0 33.0666 0 34.3179C0 36.9159 1.70953 39.0283 3.8122 39.0283H6.39734V60.6448C6.39734 61.9475 7.24914 63 8.30344 63H23.1888V46.5135H29.8602V63H45.6987C46.753 63 47.6048 61.9475 47.6048 60.6448V39.0283H50.1899C51.2026 39.0283 52.1735 38.5352 52.8883 37.6447C54.3716 35.8046 54.3716 32.8238 52.8823 30.9837Z" fill="white"/>
</svg>
